<svg viewBox="0 0 265 159" xmlns="http://www.w3.org/2000/svg"><g fill="none" fill-rule="nonzero"><g><path d="m74.8642578 13.0048828-1.6992187 2.6953125c-.9765674-.1953135-1.7968717-.2929687-2.4609375-.2929687-1.7773527 0-3.2965964.5523886-4.5577733 1.6571817l-.1443752.1299276c-.5761747.5371121-1.2011685.8056641-1.875.8056641h-8.0273437v-3.1347656h9.1259765c.449221-.4003927.9716767-.6982412 1.5673829-.8935547-.8007853-.6445345-1.6894483-1.2353489-2.6660157-1.7724609-1.2402406-.6640659-2.2265588-.9960938-2.9589843-.9960938l-.6298829.1025391 1.0253907-1.0400391c.7812539-.78125391 1.5039029-1.171875 2.1679687-1.171875.4101583 0 1.1418811.2523715 2.1951875.75712142l.3096953.15108168c.5729196.2799493 1.1458334.5555556 1.7187491.8268225l.8593759.4036463c.8593793.4003926 1.4990214.6884757 1.9189453.8642578.7519569.2929702 1.4453094.5004877 2.0800782.6225586s1.1962866.2026365 1.6845703.2416992zm-21.7822266-12.90527342v13.16894532c0 1.2011779.5078075 1.8017578 1.5234376 1.8017578l.1274156-.0024269c.1895338-.0064719.4576536-.0258874.8043625-.058247l.4232023-.0418652c.659183-.0683597 1.1987284-.102539 1.6186524-.102539v3.1347656h-5.6689454c-.8007852 0-1.2695305-.3222624-1.40625-.9667969l-.6884765.9667969h-3.6035156l.0585937-3.1347656h4.2333984v-12.02636721zm-9.7998046 14.76562502h4.4238281v3.1347656h-4.5556641c-.1757821.957036-.5371066 1.9677681-1.0839844 3.0322266-.5468777 1.0644584-1.1596645 1.9189421-1.8383789 2.5634765-.6787143.6445345-1.3061494.9667969-1.8823242.9667969-.8691449 0-2.1142497-1.054677-3.7353515-3.1640625.7812539.2929702 1.4941374.4394531 2.1386718.4394531 1.0839898 0 2.0605426-.3906211 2.9296875-1.171875.7519569-.6835971 1.3427713-1.5722601 1.772461-2.6660156h-2.2705078l-1.640625-.0732422c-.5957061-.1074224-1.0815411-.3784158-1.4575196-.8129883-.3759784-.4345725-.5639648-.9594695-.5639648-1.574707 0-2.0703229.8642492-4.0039062 2.5927734-5.80078125.449221-.46875234.9521457-.703125 1.5087891-.703125.9960987 0 1.8603479.75682837 2.5927734 2.27050785.5761748 1.1718808.9326165 2.3583924 1.069336 3.5595703zm-2.0654297 0c-.2441419-2.0410259-.8544873-3.0615235-1.8310547-3.0615235-.4687524 0-.8764631.2270485-1.2231445.6811524-.3466815.4541038-.5200196.915525-.5200196 1.3842773 0 .3320329.1220691.5957022.366211.7910157l.336914.1464843.5273438.0585938zm-15.4980469 0h5.6689453c0-1.2207093-.4101521-2.3974553-1.2304687-3.5302735l1.7285156-2.37304684c1.0253957 1.20117784 1.5380859 2.48046194 1.5380859 3.83789064 0 .8007852-.2343726 1.8456967-.703125 3.1347656l-.2671076.7836002c-.0313465.0906637-.0643809.1859089-.0991033.2857358l-.4394531.9960937h-6.1962891zm1.6992188 7.265625 1.6992187-1.4648438 1.2744141 1.171875 1.3330078-1.171875 2.0214844 1.9335938-1.6259766 1.4355469-1.2744141-1.171875-1.3623047 1.171875zm-7.2509766-19.3652344 2.5188171-2.66526001-.0285827 4.30588501-.0238038 1.94092257c-.0152589 1.53198242-.0190735 2.85033436-.0114441 3.95507173l.017311 1.5513945c.0286989 1.6980276.0932712 2.6139945.1937181 2.7479237.2832046.1757821.7373016.2880857 1.3623047.3369141l.2435761.0087164c.3871545.0101692.8723656.0072638 1.4556426-.0087164l1.3330079-.0732422v3.1347656h-5.7275391c-.5859404 0-.966796-.166014-1.1425781-.4980469-.1269538-.2246105-.1904297-.6591764-.1904297-1.3037109zm-4.0283203 15.234375h-11.44042971c-1.51367945 0-2.60253574-.2099588-3.26660156-.6298828-.83984795-.5371121-1.25976563-1.5283131-1.25976563-2.9736328 0-1.7285243.5517523-3.3837812 1.65527344-4.96582034-.21484483.73242554-.32226563 1.52343324-.32226563 2.37304684 0 1.289069.34179346 2.1533182 1.02539063 2.5927735.53711206.3125015 1.48436821.46875 2.84179687.46875h10.19531249c0-1.2207093-.4101521-2.3974553-1.2304687-3.5302735l1.7578125-2.37304684c1.0253957 1.26953764 1.5380859 2.54882164 1.5380859 3.83789064 0 .6640658-.1904278 1.5527288-.5712891 2.6660156-.3125015.8496136-.6201156 1.6943318-.9228515 2.5341797zm-4.3359375-9.59472656-1.6699219 1.46484375-1.25976562-1.171875-1.33300782 1.171875-2.03613281-1.93359375 1.62597656-1.43554688 1.23046875 1.12792969 1.40625-1.12792969z" fill="#000" transform="translate(164 100.5)"/><path d="m174.12 31.62v-10.38h7.14v10.38h8.16v-15.18h7.14v15.18h7.98v-20.04h7.14v27.18h-56.82v-7.14zm-42.96 0h25.26v7.14h-25.26zm-15.36 0h8.82v-31.62h7.14v31.62h.36v7.14h-16.32zm-24.3 0h25.26v7.14h-25.26zm-23.7 0h25.26v7.14h-25.26zm-19.5 18.9v-7.26h9.84c1.29375 0 2.165625-.2636719 2.5661865-.8404541l.0738135-.1195459c.24-.36.42-.9.42-1.5v-2.04h-1.62c-6.66 0-11.28-4.38-11.28-10.92v-5.4c0-6.42 4.62-10.86 11.28-10.86h8.82v20.04h.36v7.14h-.36v1.14c0 6.84-3.9 10.62-10.92 10.62zm12.9-31.8h-1.86c-2.58 0-3.9 1.44-3.9 4.38v4.08c0 2.94 1.32 4.44 3.9 4.44h1.86zm-31.62 24.78h.9c3.54 0 5.28-1.68 5.28-4.92v-27h7.14l-.0009375 26.3165625c-.0028125.6721875-.0140625 1.2684375-.0590625 1.7634375-.24 2.7-.9 4.92-2.1 6.6-1.74 2.34-4.02 3.72-6.84 4.08l-1.14816.08928c-.64224.04752-1.38384.09072-2.21184.09072h-.96zm-21.54-43.5h7.26v7.14h-7.26zm10.2 0h7.14v7.14h-7.14zm7.14 11.58v27.18h-25.38c1.5-16.68 11.34-26.28 25.38-27.18zm-7.14 8.76c-4.68 1.92-7.62 6.54-9.06 11.28h9.06z" fill="#ee2a7b" transform="translate(27 49)"/></g><path d="m11.72 30.32c-2.2133444 0-4.2333242-.2933304-6.06-.88s-3.40666-1.4666608-4.74-2.64l1.48-3.04c1.3866736 1.1200056 2.8266592 1.9333308 4.32 2.44s3.173324.76 5.04.76c2.133344 0 3.7866608-.399996 4.96-1.2s1.76-1.933326 1.76-3.4c0-1.2266728-.5466612-2.1533302-1.64-2.78s-2.8266548-1.206664-5.2-1.74c-2.266678-.4800024-4.1199928-1.0333302-5.56-1.66s-2.5733292-1.4666614-3.4-2.52-1.24-2.4066584-1.24-4.06.4399956-3.113327 1.32-4.38 2.1266586-2.2533298 3.74-2.96 3.4733228-1.06 5.58-1.06c2.00001 0 3.8733246.3066636 5.62.92s3.2066608 1.4799944 4.38 2.6l-1.48 3.04c-1.3066732-1.0933388-2.6533264-1.8999974-4.04-2.42s-2.8666588-.78-4.44-.78c-2.0533436 0-3.6666608.433329-4.84 1.3s-1.76 2.0466592-1.76 3.54c0 1.2800064.5133282 2.25333 1.54 2.92s2.673322 1.266664 4.94 1.8c2.3733452.533336 4.293326 1.0933304 5.76 1.68s2.6399956 1.3866616 3.52 2.4 1.32 2.319992 1.32 3.92c0 1.6533416-.4399956 3.0933272-1.32 4.32s-2.1399918 2.1799966-3.78 2.86-3.5666556 1.02-5.78 1.02zm34.08-20.48v20.16h-4v-3.44c-.5866696 1.200006-1.4599942 2.1199968-2.62 2.76s-2.5133256.96-4.06.96c-1.7866756 0-3.3533266-.4266624-4.7-1.28s-2.3933296-2.0599922-3.14-3.62-1.12-3.3799896-1.12-5.46.3799962-3.919992 1.14-5.52 1.8199932-2.8399956 3.18-3.72 2.906658-1.32 4.64-1.32c1.5466744 0 2.8933276.3266634 4.04.98s2.0266636 1.579994 2.64 2.78v-3.28zm-9.72 17.24c1.8133424 0 3.219995-.633327 4.22-1.9s1.5-3.0466552 1.5-5.34c0-2.3200116-.499995-4.1066604-1.5-5.36s-2.4199908-1.88-4.26-1.88c-1.8133424 0-3.2333282.6466602-4.26 1.94s-1.54 3.0866552-1.54 5.38c0 2.266678.5133282 4.0266604 1.54 5.28s2.46 1.88 4.3 1.88zm15.64 2.92v-29.44h4v29.44zm9.92 0v-29.44h4v29.44zm18.6.28c-1.9733432 0-3.7066592-.4266624-5.2-1.28s-2.6466626-2.0666588-3.46-3.64-1.22-3.4133228-1.22-5.52.4066626-3.9533254 1.22-5.54 1.9666592-2.8066624 3.46-3.66 3.2266568-1.28 5.2-1.28c1.9466764 0 3.6666592.4266624 5.16 1.28s2.6466626 2.0733254 3.46 3.66 1.22 3.4333228 1.22 5.54-.4066626 3.9466588-1.22 5.52-1.9666592 2.7866624-3.46 3.64-3.2133236 1.28-5.16 1.28zm-.04-3.2c1.866676 0 3.2933284-.6133272 4.28-1.84s1.48-3.0266548 1.48-5.4c0-2.3200116-.499995-4.1066604-1.5-5.36s-2.4066576-1.88-4.22-1.88c-1.8400092 0-3.2666616.6266604-4.28 1.88s-1.52 3.0399884-1.52 5.36c0 2.3733452.5 4.1733272 1.5 5.4s2.4199908 1.84 4.26 1.84zm24.64-17.72c.613336 0 1.25333.0933324 1.92.28l-.08 3.68c-.720004-.266668-1.506662-.4-2.36-.4-1.84 0-3.219995.5533278-4.14 1.66-.9200046 1.1066722-1.38 2.4999916-1.38 4.18v11.24h-4v-14.48c0-2.1066772-.1066656-3.9999916-.32-5.68h3.76l.36 3.64c.533336-1.33334 1.3599944-2.3533298 2.48-3.06 1.120006-.7066702 2.373326-1.06 3.76-1.06zm23.44.48v20.16h-4v-3.44c-.58667 1.200006-1.459994 2.1199968-2.62 2.76s-2.513326.96-4.06.96c-1.786676 0-3.353327-.4266624-4.7-1.28s-2.39333-2.0599922-3.14-3.62-1.12-3.3799896-1.12-5.46.379996-3.919992 1.14-5.52 1.819993-2.8399956 3.18-3.72 2.906658-1.32 4.64-1.32c1.546674 0 2.893328.3266634 4.04.98s2.026664 1.579994 2.64 2.78v-3.28zm-9.72 17.24c1.813342 0 3.219995-.633327 4.22-1.9s1.5-3.0466552 1.5-5.34c0-2.3200116-.499995-4.1066604-1.5-5.36s-2.419991-1.88-4.26-1.88c-1.813342 0-3.233328.6466602-4.26 1.94s-1.54 3.0866552-1.54 5.38c0 2.266678.513328 4.0266604 1.54 5.28s2.46 1.88 4.3 1.88zm48.96 3.28c-2.186678-.8800044-4.093325-2.0933256-5.72-3.64-1.146672 1.1466724-2.446659 2.0266636-3.9 2.64s-3.006658.92-4.66.92c-1.866676 0-3.513326-.3133302-4.94-.94s-2.533329-1.5133276-3.32-2.66-1.18-2.4666592-1.18-3.96c0-1.733342.5-3.2799932 1.5-4.64s2.619989-2.6799936 4.86-3.96c-1.173339-1.3066732-2.006664-2.4466618-2.5-3.42s-.74-1.9799948-.74-3.02c0-1.9200096.679993-3.4733274 2.04-4.66s3.133322-1.78 5.32-1.78c2.053344 0 3.686661.533328 4.9 1.6s1.82 2.5066576 1.82 4.32c0 1.4400072-.426662 2.7199944-1.28 3.84s-2.306656 2.3199936-4.36 3.6l6.24 6.8c1.173339-2.3200116 1.813333-5.079984 1.92-8.28h3.48c-.160001 4.266688-1.173324 7.8933184-3.04 10.88 1.546674 1.5200076 3.439989 2.7199956 5.68 3.6zm-13.2-26.2c-1.066672 0-1.93333.3199968-2.6.96s-1 1.4799948-1 2.52c0 .6933368.179998 1.3666634.54 2.02s1.033328 1.5533276 2.02 2.7c1.626675-.9866716 2.746664-1.846663 3.36-2.58s.92-1.5399956.92-2.42c0-.9600048-.29333-1.7333304-.88-2.32s-1.373328-.88-2.36-.88zm-.96 22.96c2.373345 0 4.439991-.9199908 6.2-2.76l-7.32-7.96c-1.600008 1.0133384-2.746663 1.986662-3.44 2.92s-1.04 1.999994-1.04 3.2c0 1.3866736.506662 2.4999958 1.52 3.34s2.373325 1.26 4.08 1.26zm39 3.2c-2.213344 0-4.233324-.2933304-6.06-.88s-3.40666-1.4666608-4.74-2.64l1.48-3.04c1.386674 1.1200056 2.826659 1.9333308 4.32 2.44s3.173324.76 5.04.76c2.133344 0 3.786661-.399996 4.96-1.2s1.76-1.933326 1.76-3.4c0-1.2266728-.546661-2.1533302-1.64-2.78s-2.826655-1.206664-5.2-1.74c-2.266678-.4800024-4.119993-1.0333302-5.56-1.66s-2.573329-1.4666614-3.4-2.52-1.24-2.4066584-1.24-4.06.439996-3.113327 1.32-4.38 2.126659-2.2533298 3.74-2.96 3.473323-1.06 5.58-1.06c2.00001 0 3.873325.3066636 5.62.92s3.206661 1.4799944 4.38 2.6l-1.48 3.04c-1.306673-1.0933388-2.653326-1.8999974-4.04-2.42s-2.866659-.78-4.44-.78c-2.053344 0-3.666661.433329-4.84 1.3s-1.76 2.0466592-1.76 3.54c0 1.2800064.513328 2.25333 1.54 2.92s2.673322 1.266664 4.94 1.8c2.373345.533336 4.293326 1.0933304 5.76 1.68s2.639996 1.3866616 3.52 2.4 1.32 2.319992 1.32 3.92c0 1.6533416-.439996 3.0933272-1.32 4.32s-2.139992 2.1799966-3.78 2.86-3.566656 1.02-5.78 1.02zm34.08-20.48v20.16h-4v-3.44c-.58667 1.200006-1.459994 2.1199968-2.62 2.76s-2.513326.96-4.06.96c-1.786676 0-3.353327-.4266624-4.7-1.28s-2.39333-2.0599922-3.14-3.62-1.12-3.3799896-1.12-5.46.379996-3.919992 1.14-5.52 1.819993-2.8399956 3.18-3.72 2.906658-1.32 4.64-1.32c1.546674 0 2.893328.3266634 4.04.98s2.026664 1.579994 2.64 2.78v-3.28zm-9.72 17.24c1.813342 0 3.219995-.633327 4.22-1.9s1.5-3.0466552 1.5-5.34c0-2.3200116-.499995-4.1066604-1.5-5.36s-2.419991-1.88-4.26-1.88c-1.813342 0-3.233328.6466602-4.26 1.94s-1.54 3.0866552-1.54 5.38c0 2.266678.513328 4.0266604 1.54 5.28s2.46 1.88 4.3 1.88zm38.64-17.72c4.480022 0 6.72 2.6933064 6.72 8.08v12.56h-4.04v-12.36c0-1.733342-.299997-2.999996-.9-3.8-.6-.800004-1.56666-1.2-2.9-1.2-1.546674 0-2.766662.533328-3.66 1.6s-1.34 2.5199908-1.34 4.36v11.4h-4.04v-12.36c0-1.733342-.299997-2.999996-.9-3.8s-1.56666-1.2-2.9-1.2c-1.546674 0-2.773329.533328-3.68 1.6s-1.36 2.5199908-1.36 4.36v11.4h-4v-14.48c0-2.1066772-.106666-3.9999916-.32-5.68h3.76l.36 3.36c.58667-1.2266728 1.426661-2.17333 2.52-2.84s2.373326-1 3.84-1c3.120016 0 5.159995 1.2933204 6.12 3.88.613336-1.200006 1.513327-2.1466632 2.7-2.84s2.526659-1.04 4.02-1.04z" fill="#ee2a7b" transform="translate(1)"/><g fill="#000" transform="translate(0 128)"><path d="m117.45 12.475v12.575c0 1.8166757-.449995 3.191662-1.35 4.125s-2.224991 1.4-3.975 1.4c-1.866676 0-3.49166-.4499955-4.875-1.35l.3-1.325c.816671.4833357 1.566663.824999 2.25 1.025s1.466662.3 2.35.3c1.250006 0 2.19583-.3416633 2.8375-1.025.64167-.6833368.9625-1.6833267.9625-3v-3.225c-.383335.8500042-.949996 1.5041644-1.7 1.9625s-1.649995.6875-2.7.6875c-1.100005 0-2.074996-.2624974-2.925-.7875s-1.512498-1.2583286-1.9875-2.2-.7125-2.0208273-.7125-3.2375c0-1.2333395.237498-2.3208286.7125-3.2625s1.137496-1.6708308 1.9875-2.1875c.850004-.5166693 1.824995-.775 2.925-.775 1.050005 0 1.94583.2166645 2.6875.65s1.304165 1.0666625 1.6875 1.9v-2.25zm-5.7 10.775c1.300006 0 2.32083-.433329 3.0625-1.3s1.1125-2.0499925 1.1125-3.55c0-1.5166743-.37083-2.7124956-1.1125-3.5875s-1.762494-1.3125-3.0625-1.3125c-1.316673 0-2.349996.4374956-3.1 1.3125s-1.125 2.0708257-1.125 3.5875c0 1.5166742.374996 2.7041624 1.125 3.5625s1.783327 1.2875 3.1 1.2875zm15.25-11.075c.416669 0 .783332.033333 1.1.1l-.075 1.375c-.316668-.066667-.699998-.1-1.15-.1-1.266673 0-2.212497.4041626-2.8375 1.2125s-.9375 1.7708277-.9375 2.8875v7.35h-1.5v-9.05c0-1.3000065-.066666-2.4583282-.2-3.475h1.45l.2 2.325c.316668-.8500043.829163-1.4999978 1.5375-1.95.708337-.4500023 1.512496-.675 2.4125-.675zm3.325 12.825v-12.525h1.5v12.525zm-.225-17.7h2.025v1.95h-2.025zm5.925 17.7v-18.4h1.5v18.4zm5.7 0v-18.4h1.5v18.4z"/><path d="m89.5 17h4v4h-4z"/><path d="m156.5 17h4v4h-4z"/><path d="m8.7125 12.175c1.1000055 0 2.0749958.266664 2.925.8.8500043.533336 1.5041644 1.2833285 1.9625 2.25s.6875 2.0999935.6875 3.4-.233331 2.4458284-.7 3.4375-1.1208291 1.7583306-1.9625 2.3-1.8124945.8125-2.9125.8125c-1.0333385 0-1.92082962-.2249978-2.6625-.675-.74167037-.4500023-1.2958315-1.0999958-1.6625-1.95v2.45h-1.525v-18.4h1.5v8.225c.3666685-.866671.92499625-1.5249978 1.675-1.975.75000375-.4500023 1.6416615-.675 2.675-.675zm-.175 11.65c1.3000065 0 2.316663-.4583288 3.05-1.375.733337-.9166713 1.1-2.1916585 1.1-3.825 0-1.6166748-.366663-2.8749955-1.1-3.775s-1.75832675-1.35-3.075-1.35-2.33332975.4499955-3.05 1.35-1.075 2.1749917-1.075 3.825c0 1.6500082.35832975 2.9208289 1.075 3.8125s1.74166 1.3375 3.075 1.3375zm19.725-11.35v12.525h-1.525v-2.4c-.3666685.8333375-.9208296 1.4708311-1.6625 1.9125s-1.6291615.6625-2.6625.6625c-1.1166722 0-2.0958291-.2624974-2.9375-.7875s-1.4916644-1.2749951-1.95-2.25-.6875-2.1124935-.6875-3.4125.233331-2.4458284.7-3.4375 1.1208291-1.7583306 1.9625-2.3 1.8124945-.8125 2.9125-.8125c1.0166717 0 1.8958296.2166645 2.6375.65s1.3041647 1.0666625 1.6875 1.9v-2.25zm-5.625 11.35c1.3 0 2.3083298-.4499955 3.025-1.35.7166703-.9000045 1.075-2.1666585 1.075-3.8 0-1.6500083-.3583297-2.9249955-1.075-3.825-.7166702-.9000045-1.7333267-1.35-3.05-1.35-1.3166732 0-2.341663.4624954-3.075 1.3875s-1.1 2.2041585-1.1 3.8375c0 1.6166747.366663 2.8708289 1.1 3.7625s1.76666 1.3375 3.1 1.3375zm20.25 1.175h-2.075l-6.9-6.1v6.1h-1.5v-18.4h1.5v11.7l6.3-5.825h1.975l-6.55 6.025zm12.275-6.45h-9.5v.075c0 1.6833418.3874961 2.9708289 1.1625 3.8625s1.9041593 1.3375 3.3875 1.3375c1.5000075 0 2.8749938-.5166615 4.125-1.55l.6 1.2c-.5500027.5166693-1.2499957.9291651-2.1 1.2375-.8500042.3083349-1.7249955.4625-2.625.4625-1.9000095 0-3.3999945-.5749942-4.5-1.725s-1.65-2.7333233-1.65-4.75c0-1.2833398.2458309-2.4208284.7375-3.4125s1.1791623-1.7583306 2.0625-2.3c.8833378-.5416694 1.8999943-.8125 3.05-.8125 1.65 0 2.9374954.533328 3.8625 1.6s1.3875 2.5499905 1.3875 4.45zm-5.25-5.125c-1.15 0-2.0833297.3458299-2.8 1.0375-.7166702.6916701-1.1666657 1.6624938-1.35 2.9125h7.95c-.1000005-1.2833398-.4749967-2.2624966-1.125-2.9375-.6500032-.6750034-1.541661-1.0125-2.675-1.0125zm13.925-1.25c.4166688 0 .7833318.033333 1.1.1l-.075 1.375c-.3166682-.066667-.6999977-.1-1.15-.1-1.266673 0-2.2124969.4041626-2.8375 1.2125s-.9375 1.7708277-.9375 2.8875v7.35h-1.5v-9.05c0-1.3000065-.066666-2.4583282-.2-3.475h1.45l.2 2.325c.3166683-.8500043.8291631-1.4999978 1.5375-1.95.7083369-.4500023 1.5124955-.675 2.4125-.675zm13.95.3-5.9 13.825c-.5833363 1.3666735-1.3124956 2.3708301-2.1875 3.0125s-1.9708267 1.095832-3.2875 1.3625l-.3-1.2c1.200006-.2833347 2.1041636-.6499977 2.7125-1.1s1.1208312-1.1583285 1.5375-2.125l.525-1.225-5.35-12.55h1.625l4.525 11 4.55-11z"/><path d="m178.7625 25.175c-1.183339 0-2.216662-.266664-3.1-.8s-1.566664-1.2874951-2.05-2.2625-.725-2.1041603-.725-3.3875c0-1.3000065.241664-2.4458284.725-3.4375s1.174996-1.7583306 2.075-2.3 1.941661-.8125 3.125-.8125c.850004 0 1.662496.1458319 2.4375.4375s1.412498.6958307 1.9125 1.2125l-.6 1.2c-.650003-.533336-1.27083-.9208321-1.8625-1.1625s-1.204164-.3625-1.8375-.3625c-1.350007 0-2.416663.4624954-3.2 1.3875s-1.175 2.2041585-1.175 3.8375c0 1.600008.387496 2.8499955 1.1625 3.75s1.845826 1.35 3.2125 1.35c.633336 0 1.24583-.1208321 1.8375-.3625s1.212497-.6208308 1.8625-1.1375l.6 1.175c-.533336.5166692-1.195829.9249985-1.9875 1.225s-1.595829.45-2.4125.45zm17.8-12.7v12.525h-1.525v-2.4c-.366669.8333375-.92083 1.4708311-1.6625 1.9125s-1.629162.6625-2.6625.6625c-1.116672 0-2.095829-.2624974-2.9375-.7875s-1.491664-1.2749951-1.95-2.25-.6875-2.1124935-.6875-3.4125.233331-2.4458284.7-3.4375 1.120829-1.7583306 1.9625-2.3 1.812494-.8125 2.9125-.8125c1.016672 0 1.89583.2166645 2.6375.65s1.304165 1.0666625 1.6875 1.9v-2.25zm-5.625 11.35c1.3 0 2.30833-.4499955 3.025-1.35s1.075-2.1666585 1.075-3.8c0-1.6500083-.35833-2.9249955-1.075-3.825s-1.733327-1.35-3.05-1.35-2.341663.4624954-3.075 1.3875-1.1 2.2041585-1.1 3.8375c0 1.6166747.366663 2.8708289 1.1 3.7625s1.76666 1.3375 3.1 1.3375zm11.9-10.125v7.45c0 1.000005.191665 1.6916647.575 2.075.383335.3833352.949996.575 1.7.575.466669 0 .916665-.0749993 1.35-.225v1.375c-.533336.133334-1.074997.2-1.625.2-1.100006 0-1.962497-.3083302-2.5875-.925-.625003-.6166697-.9375-1.5416605-.9375-2.775v-7.75h-2.475v-1.225h2.475v-3.325l1.525-.575v3.9h3.7v1.225zm16.6 4.85h-9.5v.075c0 1.6833418.387496 2.9708289 1.1625 3.8625s1.904159 1.3375 3.3875 1.3375c1.500007 0 2.874994-.5166615 4.125-1.55l.6 1.2c-.550003.5166693-1.249996.9291651-2.1 1.2375s-1.724995.4625-2.625.4625c-1.900009 0-3.399994-.5749942-4.5-1.725-1.100005-1.1500058-1.65-2.7333233-1.65-4.75 0-1.2833398.245831-2.4208284.7375-3.4125s1.179162-1.7583306 2.0625-2.3 1.899994-.8125 3.05-.8125c1.65 0 2.937495.533328 3.8625 1.6s1.3875 2.5499905 1.3875 4.45zm-5.25-5.125c-1.15 0-2.08333.3458299-2.8 1.0375s-1.166666 1.6624938-1.35 2.9125h7.95c-.100001-1.2833398-.474997-2.2624966-1.125-2.9375s-1.541661-1.0125-2.675-1.0125zm13.925-1.25c.416669 0 .783332.033333 1.1.1l-.075 1.375c-.316668-.066667-.699998-.1-1.15-.1-1.266673 0-2.212497.4041626-2.8375 1.2125s-.9375 1.7708277-.9375 2.8875v7.35h-1.5v-9.05c0-1.3000065-.066666-2.4583282-.2-3.475h1.45l.2 2.325c.316668-.8500043.829163-1.4999978 1.5375-1.95.708337-.4500023 1.512495-.675 2.4125-.675zm3.325 12.825v-12.525h1.5v12.525zm-.225-17.7h2.025v1.95h-2.025zm25.2 4.875c1.050005 0 1.94583.2166645 2.6875.65s1.304165 1.0666625 1.6875 1.9v-2.25h1.525v12.575c0 1.8166757-.449995 3.191662-1.35 4.125-.900004.933338-2.224991 1.4-3.975 1.4-1.866676 0-3.49166-.4499955-4.875-1.35l.3-1.325c.816671.4833357 1.566663.824999 2.25 1.025s1.466662.3 2.35.3c1.250006 0 2.19583-.3416633 2.8375-1.025.64167-.6833368.9625-1.6833267.9625-3v-3.225c-.383335.8500042-.949996 1.5041644-1.7 1.9625s-1.649995.6875-2.7.6875c-1.100005 0-2.074996-.2624974-2.925-.7875s-1.512498-1.2583286-1.9875-2.2-.7125-2.0208273-.7125-3.2375c0-1.2333395.237498-2.3208286.7125-3.2625s1.137496-1.6708308 1.9875-2.1875c.850004-.5166693 1.824995-.775 2.925-.775zm-13.45 0c3.016682 0 4.525 1.6166505 4.525 4.85v7.975h-1.525v-7.875c0-1.2500063-.254164-2.1666638-.7625-2.75-.508336-.5833363-1.304161-.875-2.3875-.875-1.250006 0-2.25833.3833295-3.025 1.15-.766671.7666705-1.15 1.7999935-1.15 3.1v7.25h-1.5v-9.05c0-1.3000065-.066666-2.4583282-.2-3.475h1.45l.2 2.3c.383335-.8500043.95833-1.4958311 1.725-1.9375.766671-.4416689 1.649995-.6625 2.65-.6625zm13.65 1.325c-1.316673 0-2.349996.4374956-3.1 1.3125s-1.125 2.0708257-1.125 3.5875c0 1.5166742.374996 2.7041624 1.125 3.5625s1.783327 1.2875 3.1 1.2875c1.300007 0 2.32083-.433329 3.0625-1.3s1.1125-2.0499925 1.1125-3.55c0-1.5166743-.37083-2.7124956-1.1125-3.5875s-1.762493-1.3125-3.0625-1.3125z"/></g></g></svg>