<svg height="52" viewBox="0 0 154 52" width="154" xmlns="http://www.w3.org/2000/svg"><path d="m97.58 40v-4.86h5.4c3.880019 0 5.82-1.99998 5.82-6v-8.4l5.16-2.76v11.16c0 4.00002 1.95998 6 5.88 6h2.76c3.92002 0 5.88-1.99998 5.88-6v-10.44l5.16-2.7v13.14c0 4.00002 1.939981 6 5.82 6h2.82c3.92002 0 5.88-1.99998 5.88-6v-12.42l5.16-2.76v15.36c0 3.400017-1.01999 6.0599904-3.06 7.98-1.800009 1.7600088-4.199985 2.66-7.2 2.7h-4.14c-3.520018 0-6.139991-1.1799882-7.86-3.54-1.720009 2.3200116-4.279983 3.5-7.68 3.54h-4.14c-3.440017 0-6.059991-1.1799882-7.86-3.54-1.720009 2.3600118-4.339982 3.54-7.86 3.54zm-.36-4.86h3.96v4.86h-4.56c-3.4400172 0-6.0999906-1.099989-7.98-3.3-2.00001 2.200011-4.7599824 3.3-8.28 3.3h-3.6v-4.86h3.18c4.1600208 0 6.24-2.1799782 6.24-6.54v-24.54l5.22-2.76v27.36c0 2.3200116.4499955 3.979995 1.35 4.98s2.3899896 1.5 4.47 1.5zm-16.86 0v4.86h-7.44c-.1600008 3.4400172-1.639986 6.2799888-4.44 8.52-2.3600118 1.8400092-5.039985 2.76-8.04 2.76-2.4800124 0-4.819989-.5799942-7.02-1.74v-4.56c2.1200106 1.1200056 4.2199896 1.68 6.3 1.68 2.1200106 0 3.9699921-.6599934 5.55-1.98s2.3899998-2.8999908 2.43-4.74l-1.9000035-.0800001c-1.1466656-.0533332-2.0533265-.1066663-2.7199965-.1599999-4.3200216-.2400012-7.579989-1.6999866-9.78-4.38-1.8400092-2.2400112-2.76-5.1399822-2.76-8.7 0-4.3600218 1.1599884-7.7599878 3.48-10.2 2.0800104-2.1600108 4.819983-3.24 8.22-3.24 3.5600178 0 6.3 1.0599894 8.22 3.18 1.6400082 1.8800094 2.46 4.3399848 2.46 7.38v11.4zm-12.66-11.04c0-4.0800204-1.8199818-6.12-5.46-6.12-2.0800104 0-3.6999942.7499925-4.86 2.25s-1.74 3.5899866-1.74 6.27c0 5.2400262 2.5599744 8.0199984 7.68 8.34l.4106677.0469335c.9475559.099378 2.2706571.1837328 3.9693323.2530665zm-26.16 12.72c0 4.4800224-1.1799882 8.0799864-3.54 10.8-2.2400112 2.600013-5.2199814 3.9-8.94 3.9-2.400012 0-4.7399886-.599994-7.02-1.8v-4.5c2.0400102 1.1200056 4.0799898 1.68 6.12 1.68 2.5600128 0 4.5599928-.8599914 6-2.58s2.16-4.0999848 2.16-7.14v-20.46l5.22-2.76zm-33.9-30.72c-1.9600098 0-2.94-.99999-2.94-3 0-1.9600098.9799902-2.94 2.94-2.94 1.9200096 0 2.88.9799902 2.88 2.94 0 2.00001-.9599904 3-2.88 3zm7.68 0c-1.9600098 0-2.94-.99999-2.94-3 0-1.9600098.9799902-2.94 2.94-2.94 1.9200096 0 2.88.9799902 2.88 2.94 0 2.00001-.9599904 3-2.88 3zm-3.48 7.08c3.8800194 1.3200066 6.7999902 3.3999858 8.76 6.24 1.7600088 2.5200126 2.64 5.4599832 2.64 8.82 0 3.800019-1.1199888 6.7799892-3.36 8.94-2 1.8800094-4.5799842 2.82-7.74 2.82h-.6c-3.6400182 0-6.4799898-1.2199878-8.52-3.66-1.7600088-2.1200106-2.64-4.8199836-2.64-8.1 0-3.5600178.9899901-6.6499869 2.97-9.27s4.8099816-4.5499938 8.49-5.79zm0 4.8c-4.200021 2.0800104-6.3 5.4999762-6.3 10.26 0 2.1200106.5199948 3.7999938 1.56 5.04s2.459991 1.86 4.26 1.86h.9c1.800009 0 3.2299947-.6199938 4.29-1.86s1.59-2.8999896 1.59-4.98c0-4.800024-2.099979-8.2399896-6.3-10.32z"/></svg>