<svg height="25" viewBox="0 0 255 25" width="255" xmlns="http://www.w3.org/2000/svg"><g fill="#2a2a2a" fill-rule="evenodd"><path d="m82 11h4v4h-4z"/><path d="m149 11h4v4h-4z"/><g fill-rule="nonzero"><path d="m109.95 6.475v12.575c0 1.8166757-.449995 3.191662-1.35 4.125s-2.224991 1.4-3.975 1.4c-1.866676 0-3.49166-.4499955-4.875-1.35l.3-1.325c.816671.4833358 1.566663.824999 2.25 1.025s1.466662.3 2.35.3c1.250006 0 2.19583-.3416632 2.8375-1.025.64167-.6833367.9625-1.6833267.9625-3v-3.225c-.383335.8500042-.949996 1.5041644-1.7 1.9625s-1.649995.6875-2.7.6875c-1.100005 0-2.074996-.2624974-2.925-.7875s-1.5124976-1.2583286-1.9875-2.2-.7125-2.0208273-.7125-3.2375c0-1.2333395.2374976-2.3208286.7125-3.2625.4750024-.94167137 1.137496-1.67083075 1.9875-2.1875s1.824995-.775 2.925-.775c1.050005 0 1.94583.2166645 2.6875.65s1.304165 1.0666625 1.6875 1.9v-2.25zm-5.7 10.775c1.300006 0 2.32083-.433329 3.0625-1.3s1.1125-2.0499925 1.1125-3.55c0-1.5166743-.37083-2.71249563-1.1125-3.5875s-1.762494-1.3125-3.0625-1.3125c-1.316673 0-2.349996.43749563-3.1 1.3125s-1.125 2.0708257-1.125 3.5875c0 1.5166742.374996 2.7041624 1.125 3.5625s1.783327 1.2875 3.1 1.2875zm15.25-11.075c.416669 0 .783332.033333 1.1.1l-.075 1.375c-.316668-.066667-.699998-.1-1.15-.1-1.266673 0-2.212497.40416262-2.8375 1.2125-.625003.80833737-.9375 1.7708277-.9375 2.8875v7.35h-1.5v-9.05c0-1.3000065-.066666-2.45832825-.2-3.475h1.45l.2 2.325c.316668-.85000425.829163-1.49999775 1.5375-1.95s1.512496-.675 2.4125-.675zm3.325 12.825v-12.525h1.5v12.525zm-.225-17.7h2.025v1.95h-2.025zm5.925 17.7v-18.4h1.5v18.4zm5.7 0v-18.4h1.5v18.4z"/><path d="m6.3375 6.175c1.1000055 0 2.07082912.27083062 2.9125.8125.8416709.54166937 1.495831 1.30832837 1.9625 2.3.466669.9916716.7 2.1374935.7 3.4375s-.2291644 2.4333285-.6875 3.4-1.1124958 1.716664-1.9625 2.25c-.85000425.533336-1.8249945.8-2.925.8-1.05 0-1.94582963-.2291644-2.6875-.6875-.74167038-.4583356-1.2958315-1.120829-1.6625-1.9875v7.9h-1.5v-14.45c0-1.3000065-.066666-2.45832825-.2-3.475h1.45l.2 2.45c.3666685-.88333775.92916287-1.56249762 1.6875-2.0375.75833712-.47500238 1.6625-.7125 2.7125-.7125zm-.2 11.65c1.31667325 0 2.341663-.4458289 3.075-1.3375s1.1-2.1458253 1.1-3.7625c0-1.6333415-.366663-2.91249538-1.1-3.8375-.733337-.92500463-1.7499935-1.3875-3.05-1.3875-1.33334 0-2.35832975.4499955-3.075 1.35s-1.075 2.1749917-1.075 3.825c0 1.6333415.35832975 2.8999955 1.075 3.8s1.73332675 1.35 3.05 1.35zm19.75-11.35v12.525h-1.525v-2.4c-.3666685.8333375-.9208296 1.4708311-1.6625 1.9125s-1.6291615.6625-2.6625.6625c-1.1166722 0-2.0958291-.2624974-2.9375-.7875s-1.4916644-1.2749951-1.95-2.25-.6875-2.1124935-.6875-3.4125.233331-2.4458284.7-3.4375c.466669-.99167163 1.1208291-1.75833063 1.9625-2.3.8416709-.54166938 1.8124945-.8125 2.9125-.8125 1.0166717 0 1.8958296.2166645 2.6375.65s1.3041647 1.0666625 1.6875 1.9v-2.25zm-5.625 11.35c1.3 0 2.3083297-.4499955 3.025-1.35.7166702-.9000045 1.075-2.1666585 1.075-3.8 0-1.6500083-.3583298-2.9249955-1.075-3.825-.7166703-.9000045-1.7333268-1.35-3.05-1.35-1.3166733 0-2.341663.46249537-3.075 1.3875-.733337.92500462-1.1 2.2041585-1.1 3.8375 0 1.6166747.366663 2.8708289 1.1 3.7625s1.76666 1.3375 3.1 1.3375zm13.85 1.35c-2.0333435 0-3.6416608-.5583277-4.825-1.675l.55-1.175c.66667.5500028 1.3374966.9416655 2.0125 1.175s1.4541622.35 2.3375.35c1.0333385 0 1.8208306-.1791649 2.3625-.5375s.8125-.8791632.8125-1.5625c0-.5666695-.1791649-1.0124984-.5375-1.3375s-.9458293-.587499-1.7625-.7875l-2.125-.475c-1.000005-.2333345-1.7874971-.649997-2.3625-1.25s-.8625-1.299996-.8625-2.1c0-1.1000055.4208291-1.97916338 1.2625-2.6375.8416709-.65833663 1.962493-.9875 3.3625-.9875.8833377 0 1.7041629.14166525 2.4625.425s1.3874975.691664 1.8875 1.225l-.575 1.175c-1.1500058-1.000005-2.4083265-1.5-3.775-1.5-.9666715 0-1.716664.19166475-2.25.575s-.8.91666325-.8 1.6c0 .5666695.1708316 1.0249983.5125 1.375.3416684.3500018.8708297.6083325 1.5875.775l2.15.525c2.2500112.5000025 3.375 1.6083247 3.375 3.325 0 1.0500053-.433329 1.8958301-1.3 2.5375s-2.033326.9625-3.5.9625zm10.4-11.475v7.45c0 1.000005.1916648 1.6916647.575 2.075.3833353.3833352.9499963.575 1.7.575.466669 0 .9166645-.0749993 1.35-.225v1.375c-.533336.133334-1.0749973.2-1.625.2-1.1000055 0-1.9624969-.3083302-2.5875-.925-.6250031-.6166697-.9375-1.5416605-.9375-2.775v-7.75h-2.475v-1.225h2.475v-3.325l1.525-.575v3.9h3.7v1.225zm11.7-1.525c.4166687 0 .7833317.033333 1.1.1l-.075 1.375c-.3166683-.066667-.6999978-.1-1.15-.1-1.266673 0-2.2124969.40416262-2.8375 1.2125-.6250031.80833737-.9375 1.7708277-.9375 2.8875v7.35h-1.5v-9.05c0-1.3000065-.066666-2.45832825-.2-3.475h1.45l.2 2.325c.3166682-.85000425.8291631-1.49999775 1.5375-1.95s1.5124955-.675 2.4125-.675zm13.95.3-5.9 13.825c-.5833363 1.3666735-1.3124956 2.3708301-2.1875 3.0125s-1.9708268 1.095832-3.2875 1.3625l-.3-1.2c1.200006-.2833348 2.1041636-.6499977 2.7125-1.1s1.1208312-1.1583285 1.5375-2.125l.525-1.225-5.35-12.55h1.625l4.525 11 4.55-11z"/><path d="m171.2625 19.175c-1.183339 0-2.216662-.266664-3.1-.8s-1.566664-1.2874951-2.05-2.2625-.725-2.1041603-.725-3.3875c0-1.3000065.241664-2.4458284.725-3.4375.483336-.99167163 1.174996-1.75833063 2.075-2.3.900004-.54166938 1.941661-.8125 3.125-.8125.850004 0 1.662496.14583187 2.4375.4375.775004.29166812 1.412498.69583075 1.9125 1.2125l-.6 1.2c-.650003-.533336-1.27083-.92083213-1.8625-1.1625-.59167-.24166788-1.204164-.3625-1.8375-.3625-1.350007 0-2.416663.46249537-3.2 1.3875-.783337.92500462-1.175 2.2041585-1.175 3.8375 0 1.600008.387496 2.8499955 1.1625 3.75s1.845826 1.35 3.2125 1.35c.633336 0 1.24583-.1208321 1.8375-.3625s1.212497-.6208308 1.8625-1.1375l.6 1.175c-.533336.5166692-1.195829.9249985-1.9875 1.225s-1.595829.45-2.4125.45zm17.8-12.7v12.525h-1.525v-2.4c-.366669.8333375-.92083 1.4708311-1.6625 1.9125s-1.629162.6625-2.6625.6625c-1.116672 0-2.095829-.2624974-2.9375-.7875s-1.491664-1.2749951-1.95-2.25-.6875-2.1124935-.6875-3.4125.233331-2.4458284.7-3.4375c.466669-.99167163 1.120829-1.75833063 1.9625-2.3.841671-.54166938 1.812494-.8125 2.9125-.8125 1.016672 0 1.89583.2166645 2.6375.65s1.304165 1.0666625 1.6875 1.9v-2.25zm-5.625 11.35c1.3 0 2.30833-.4499955 3.025-1.35s1.075-2.1666585 1.075-3.8c0-1.6500083-.35833-2.9249955-1.075-3.825s-1.733327-1.35-3.05-1.35-2.341663.46249537-3.075 1.3875c-.733337.92500462-1.1 2.2041585-1.1 3.8375 0 1.6166747.366663 2.8708289 1.1 3.7625s1.76666 1.3375 3.1 1.3375zm11.9-10.125v7.45c0 1.000005.191665 1.6916647.575 2.075.383335.3833352.949996.575 1.7.575.466669 0 .916665-.0749993 1.35-.225v1.375c-.533336.133334-1.074997.2-1.625.2-1.100006 0-1.962497-.3083302-2.5875-.925-.625003-.6166697-.9375-1.5416605-.9375-2.775v-7.75h-2.475v-1.225h2.475v-3.325l1.525-.575v3.9h3.7v1.225zm16.6 4.85h-9.5v.075c0 1.6833418.387496 2.9708289 1.1625 3.8625s1.904159 1.3375 3.3875 1.3375c1.500007 0 2.874994-.5166615 4.125-1.55l.6 1.2c-.550003.5166693-1.249996.9291651-2.1 1.2375s-1.724995.4625-2.625.4625c-1.900009 0-3.399994-.5749942-4.5-1.725-1.100005-1.1500058-1.65-2.7333233-1.65-4.75 0-1.2833398.245831-2.4208284.7375-3.4125.491669-.99167163 1.179162-1.75833063 2.0625-2.3.883338-.54166938 1.899994-.8125 3.05-.8125 1.65 0 2.937495.533328 3.8625 1.6s1.3875 2.5499905 1.3875 4.45zm-5.25-5.125c-1.15 0-2.08333.34582987-2.8 1.0375s-1.166666 1.6624938-1.35 2.9125h7.95c-.100001-1.2833398-.474997-2.26249663-1.125-2.9375-.650003-.67500338-1.541661-1.0125-2.675-1.0125zm13.925-1.25c.416669 0 .783332.033333 1.1.1l-.075 1.375c-.316668-.066667-.699998-.1-1.15-.1-1.266673 0-2.212497.40416262-2.8375 1.2125-.625003.80833737-.9375 1.7708277-.9375 2.8875v7.35h-1.5v-9.05c0-1.3000065-.066666-2.45832825-.2-3.475h1.45l.2 2.325c.316668-.85000425.829163-1.49999775 1.5375-1.95s1.512495-.675 2.4125-.675zm3.325 12.825v-12.525h1.5v12.525zm-.225-17.7h2.025v1.95h-2.025zm11.75 4.875c3.016682 0 4.525 1.6166505 4.525 4.85v7.975h-1.525v-7.875c0-1.25000625-.254164-2.16666375-.7625-2.75s-1.304161-.875-2.3875-.875c-1.250006 0-2.25833.3833295-3.025 1.15-.766671.7666705-1.15 1.7999935-1.15 3.1v7.25h-1.5v-9.05c0-1.3000065-.066666-2.45832825-.2-3.475h1.45l.2 2.3c.383335-.85000425.95833-1.49583113 1.725-1.9375.766671-.44166888 1.649995-.6625 2.65-.6625zm13.45 0c1.050005 0 1.94583.2166645 2.6875.65s1.304165 1.0666625 1.6875 1.9v-2.25h1.525v12.575c0 1.8166757-.449995 3.191662-1.35 4.125-.900004.933338-2.224991 1.4-3.975 1.4-1.866676 0-3.49166-.4499955-4.875-1.35l.3-1.325c.816671.4833358 1.566663.824999 2.25 1.025s1.466662.3 2.35.3c1.250006 0 2.19583-.3416632 2.8375-1.025.64167-.6833367.9625-1.6833267.9625-3v-3.225c-.383335.8500042-.949996 1.5041644-1.7 1.9625s-1.649995.6875-2.7.6875c-1.100005 0-2.074996-.2624974-2.925-.7875s-1.512498-1.2583286-1.9875-2.2-.7125-2.0208273-.7125-3.2375c0-1.2333395.237498-2.3208286.7125-3.2625.475002-.94167137 1.137496-1.67083075 1.9875-2.1875s1.824995-.775 2.925-.775zm.2 1.325c-1.316673 0-2.349996.43749563-3.1 1.3125s-1.125 2.0708257-1.125 3.5875c0 1.5166742.374996 2.7041624 1.125 3.5625s1.783327 1.2875 3.1 1.2875c1.300007 0 2.32083-.433329 3.0625-1.3s1.1125-2.0499925 1.1125-3.55c0-1.5166743-.37083-2.71249563-1.1125-3.5875s-1.762493-1.3125-3.0625-1.3125z"/></g></g></svg>