<svg width="202" height="60" xmlns="http://www.w3.org/2000/svg"><path d="M201.79 24.975l-7.237 10.869a26.429 26.429 0 00-7.266-1.026c-3.516 0-6.094.801-7.734 2.403l-1.758 1.67c-1.152 1.132-2.295 1.796-3.428 1.992-.435.072-1.24.111-2.417.116L149.963 41V28.637h24.726l-1.142-.586-3.193-1.817c-1.954-1.113-3.975-1.67-6.065-1.67-1.602 0-2.978.284-4.13.85l6.122-6.914c1.914-2.168 3.711-3.252 5.39-3.252 1.29 0 2.852.488 4.688 1.465l4.63 2.373 1.035.534c3.392 1.732 6.162 2.98 8.31 3.743 3.613 1.23 6.973 1.787 10.078 1.67l1.377-.058zM133.321 41h-9.55V28.637h10.37V9.623l9.053-9.61.059 26.046.06.703c.033.335.062.54.086.615.118.605.352.967.704 1.084.117.039.654.078 1.61.117l1.759.059h5.273V41h-12.598l-.589-.005c-1.313-.026-2.201-.141-2.663-.347-.703-.332-1.357-1.113-1.962-2.343L133.322 41zm-17.168-12.363h10.371V41H115.92c-.684 2.93-2.041 5.986-4.072 9.17-2.54 3.926-4.98 5.889-7.325 5.889-4.53 0-8.437-3.662-11.718-10.987 1.894.567 3.7.85 5.42.85 4.355 0 7.93-1.64 10.722-4.922h-5.156l-.738-.004c-1.775-.02-3.033-.117-3.774-.289-1.425-.41-2.568-1.284-3.427-2.622-.86-1.338-1.29-2.866-1.29-4.585 0-4.16 1.66-8.74 4.981-13.74 2.227-3.36 4.365-5.04 6.416-5.04 2.559 0 4.853 1.72 6.885 5.157 1.523 2.598 2.607 5.459 3.252 8.584l.058.176zm-7.968.41v-.352a4.918 4.918 0 00-.85-2.812c-.684-.918-1.523-1.377-2.52-1.377-.761 0-1.42.278-1.977.835-.557.556-.835 1.216-.835 1.977 0 1.153.752 1.729 2.256 1.729h3.926zM85.1 15.072c3.144 3.614 4.716 7.393 4.716 11.338 0 1.973-.517 4.375-1.552 7.207l-1.319 3.604A50.254 50.254 0 0185.393 41H67.932V28.637h14.267c-.722-1.875-1.855-3.633-3.398-5.274l6.299-8.29zM69.309 52.631l5.83-5.45 3.515 3.253 3.428-3.252 7.5 6.884-5.86 5.596-3.31-3.076-3.428 3.076-7.675-7.031zm1.406-23.994V41H56.359c-1.914 0-3.232-.459-3.955-1.377-.722-.918-1.084-2.383-1.084-4.394V9.623L60.402.189l-.006 1.08c-.018 1.56-.071 3.604-.16 6.133l-.123 3.419c-.1 2.94-.15 5.216-.15 6.83 0 3.886.205 7.285.615 10.195.586.644 2.285.966 5.098.966.735 0 1.608-.022 2.62-.067l2.419-.108zM39.807 15.072c3.164 3.614 4.746 7.393 4.746 11.338 0 3.203-1.475 8.067-4.424 14.59H13c-4.082 0-7.041-.615-8.877-1.846C1.799 37.631.637 34.887.637 30.922c0-2.52.664-5.283 1.992-8.291 1.191-2.754 2.685-5.195 4.482-7.324-.761 2.285-1.142 4.472-1.142 6.562 0 2.559.781 4.375 2.343 5.45 1.329.878 3.33 1.318 6.006 1.318h22.618c-.723-1.875-1.866-3.633-3.428-5.274l6.299-8.29zm-7.002-4.13l-5.83 5.39-3.545-3.223-3.399 3.223-7.5-6.885 5.86-5.595 3.31 3.076 3.428-3.076 7.676 7.09z" fill="#000" fill-rule="nonzero"/></svg>