<svg height="50" viewBox="0 0 150 50" width="150" xmlns="http://www.w3.org/2000/svg"><path d="m149.728516 26.0097656-3.398438 5.390625c-1.953135-.3906269-3.593743-.5859375-4.921875-.5859375-3.554705 0-6.593193 1.1047772-9.115546 3.3143635l-.288751.2598553c-1.152349 1.0742241-2.402337 1.6113281-3.75 1.6113281h-16.054687v-6.2695312h18.251953c.898442-.8007853 1.943353-1.3964825 3.134766-1.7871094-1.601571-1.289069-3.378897-2.4706978-5.332032-3.5449219-2.480481-1.3281316-4.453117-1.9921875-5.917968-1.9921875l-1.259766.2050781 2.050781-2.0800781c1.562508-1.5625078 3.007806-2.34375 4.335938-2.34375.820316 0 2.283762.504743 4.390375 1.5142428l.61939.3021634c1.145839.5598987 2.291667 1.1111112 3.437498 1.653645l1.718752.8072926c1.718759.8007852 2.998043 1.3769513 3.837891 1.7285156 1.503914.5859404 2.890619 1.0009753 4.160156 1.2451172 1.269538.2441418 2.392573.405273 3.369141.4833984zm-43.564454-25.81054685v26.33789065c0 2.4023557 1.015615 3.6035156 3.046876 3.6035156l.254831-.0048539c.379067-.0129437.915307-.0517748 1.608725-.1164938l.846404-.0837304c1.318366-.1367195 2.397457-.2050781 3.237305-.2050781v6.2695312h-11.337891c-1.60157 0-2.539061-.6445248-2.8125-1.9335938l-1.3769526 1.9335938h-7.2070313l.1171875-6.2695312h8.4667964v-24.05273442zm-19.5996089 29.53125005h8.8476563v6.2695312h-9.1113282c-.3515642 1.9140721-1.0742132 3.9355362-2.1679687 6.0644531s-2.3193292 3.8378842-3.6767578 5.1269531c-1.3574287 1.289069-2.6122989 1.9335938-3.7646485 1.9335938-1.7382899 0-4.2284994-2.1093539-7.4707031-6.328125 1.5625078.5859404 2.9882748.8789062 4.2773438.8789062 2.1679796 0 4.121085-.7812421 5.859375-2.34375 1.5039137-1.3671943 2.6855426-3.1445203 3.5449219-5.3320312h-4.5410157l-3.28125-.1464844c-1.1914122-.2148448-2.1630822-.7568316-2.915039-1.6259765-.7519569-.869145-1.1279297-1.9189392-1.1279297-3.1494141 0-4.1406457 1.7284983-8.0077945 5.1855468-11.6015625.898442-.9375047 1.9042914-1.40625 3.0175782-1.40625 1.9921974 0 3.7206958 1.5136567 5.1855468 4.5410156 1.1523496 2.3437617 1.8652331 4.7167849 2.1386719 7.1191407zm-4.1308593 0c-.4882837-4.0820517-1.7089747-6.1230469-3.6621094-6.1230469-.9375047 0-1.7529262.454097-2.4462891 1.3623047-.6933628.9082076-1.0400391 1.83105-1.0400391 2.7685546 0 .6640659.2441382 1.1914043.7324219 1.5820313l.6738281.2929687 1.0546876.1171876zm-30.9960938 0h11.3378906c0-2.4414185-.8203043-4.7949106-2.4609375-7.0605469l3.4570313-4.7460938c2.0507915 2.4023558 3.0761718 4.960924 3.0761718 7.6757813 0 1.6015705-.4687453 3.6913933-1.40625 6.2695312l-.5342153 1.5672005c-.0626929.1813272-.1287617.3718176-.1982065.5714714l-.8789063 1.9921875h-12.3925781zm3.3984375 14.53125 3.3984375-2.9296876 2.5488281 2.34375 2.6660157-2.34375 4.0429687 3.8671876-3.2519531 2.8710937-2.5488282-2.34375-2.7246093 2.34375zm-14.5019531-38.7304688 5.0376343-5.33052002-.0571656 8.61177002-.0476076 3.8818451c-.0305177 3.0639649-.038147 5.7006688-.0228881 7.9101435l.034622 3.1027889c.0573978 3.3960552.1865424 5.227989.3874362 5.4958475.5664091.3515643 1.4746032.5761714 2.7246094.6738281l.4871523.017433c.7743089.0203384 1.7447311.0145274 2.9112852-.017433l2.6660156-.1464843v6.2695312h-11.4550781c-1.1718809 0-1.933592-.3320279-2.2851562-.9960938-.2539076-.4492209-.3808594-1.3183529-.3808594-2.6074218zm-8.0566406 30.46875h-22.88085943c-3.02735888 0-5.20507148-.4199177-6.53320312-1.2597656-1.6796959-1.0742241-2.51953125-3.0566262-2.51953125-5.9472656 0-3.4570486 1.10350459-6.7675624 3.31054688-9.9316407-.42968965 1.4648511-.64453126 3.0468665-.64453126 4.7460938 0 2.5781379.68358692 4.3066362 2.05078126 5.1855469 1.07422412.6250031 2.96873642.9375 5.68359372.9375h20.390625c0-2.4414185-.8203043-4.7949106-2.4609375-7.0605469l3.515625-4.7460938c2.0507915 2.5390752 3.0761719 5.0976434 3.0761719 7.6757813 0 1.3281316-.3808556 3.1054576-1.1425781 5.3320312-.6250031 1.6992273-1.2402314 3.3886635-1.8457031 5.0683594zm-8.671875-19.1894531-3.3398438 2.9296875-2.5195312-2.34375-2.6660157 2.34375-4.0722656-3.8671875 3.2519531-2.8710938 2.4609375 2.2558594 2.8125-2.2558594z"/></svg>