<svg height="31" viewBox="0 0 263 31" width="263" xmlns="http://www.w3.org/2000/svg"><path d="m11.72 30.32c-2.2133444 0-4.2333242-.2933304-6.06-.88s-3.40666-1.4666608-4.74-2.64l1.48-3.04c1.3866736 1.1200056 2.8266592 1.9333308 4.32 2.44s3.173324.76 5.04.76c2.133344 0 3.7866608-.399996 4.96-1.2s1.76-1.933326 1.76-3.4c0-1.2266728-.5466612-2.1533302-1.64-2.78s-2.8266548-1.206664-5.2-1.74c-2.266678-.4800024-4.1199928-1.0333302-5.56-1.66s-2.5733292-1.4666614-3.4-2.52-1.24-2.4066584-1.24-4.06.4399956-3.113327 1.32-4.38 2.1266586-2.2533298 3.74-2.96 3.4733228-1.06 5.58-1.06c2.00001 0 3.8733246.3066636 5.62.92s3.2066608 1.4799944 4.38 2.6l-1.48 3.04c-1.3066732-1.0933388-2.6533264-1.8999974-4.04-2.42s-2.8666588-.78-4.44-.78c-2.0533436 0-3.6666608.433329-4.84 1.3s-1.76 2.0466592-1.76 3.54c0 1.2800064.5133282 2.25333 1.54 2.92s2.673322 1.266664 4.94 1.8c2.3733452.533336 4.293326 1.0933304 5.76 1.68s2.6399956 1.3866616 3.52 2.4 1.32 2.319992 1.32 3.92c0 1.6533416-.4399956 3.0933272-1.32 4.32s-2.1399918 2.1799966-3.78 2.86-3.5666556 1.02-5.78 1.02zm34.08-20.48v20.16h-4v-3.44c-.5866696 1.200006-1.4599942 2.1199968-2.62 2.76s-2.5133256.96-4.06.96c-1.7866756 0-3.3533266-.4266624-4.7-1.28s-2.3933296-2.0599922-3.14-3.62-1.12-3.3799896-1.12-5.46.3799962-3.919992 1.14-5.52 1.8199932-2.8399956 3.18-3.72 2.906658-1.32 4.64-1.32c1.5466744 0 2.8933276.3266634 4.04.98s2.0266636 1.579994 2.64 2.78v-3.28zm-9.72 17.24c1.8133424 0 3.219995-.633327 4.22-1.9s1.5-3.0466552 1.5-5.34c0-2.3200116-.499995-4.1066604-1.5-5.36s-2.4199908-1.88-4.26-1.88c-1.8133424 0-3.2333282.6466602-4.26 1.94s-1.54 3.0866552-1.54 5.38c0 2.266678.5133282 4.0266604 1.54 5.28s2.46 1.88 4.3 1.88zm15.64 2.92v-29.44h4v29.44zm9.92 0v-29.44h4v29.44zm18.6.28c-1.9733432 0-3.7066592-.4266624-5.2-1.28s-2.6466626-2.0666588-3.46-3.64-1.22-3.4133228-1.22-5.52.4066626-3.9533254 1.22-5.54 1.9666592-2.8066624 3.46-3.66 3.2266568-1.28 5.2-1.28c1.9466764 0 3.6666592.4266624 5.16 1.28s2.6466626 2.0733254 3.46 3.66 1.22 3.4333228 1.22 5.54-.4066626 3.9466588-1.22 5.52-1.9666592 2.7866624-3.46 3.64-3.2133236 1.28-5.16 1.28zm-.04-3.2c1.866676 0 3.2933284-.6133272 4.28-1.84s1.48-3.0266548 1.48-5.4c0-2.3200116-.499995-4.1066604-1.5-5.36s-2.4066576-1.88-4.22-1.88c-1.8400092 0-3.2666616.6266604-4.28 1.88s-1.52 3.0399884-1.52 5.36c0 2.3733452.5 4.1733272 1.5 5.4s2.4199908 1.84 4.26 1.84zm24.64-17.72c.613336 0 1.25333.0933324 1.92.28l-.08 3.68c-.720004-.266668-1.506662-.4-2.36-.4-1.84 0-3.219995.5533278-4.14 1.66-.9200046 1.1066722-1.38 2.4999916-1.38 4.18v11.24h-4v-14.48c0-2.1066772-.1066656-3.9999916-.32-5.68h3.76l.36 3.64c.533336-1.33334 1.3599944-2.3533298 2.48-3.06 1.120006-.7066702 2.373326-1.06 3.76-1.06zm23.44.48v20.16h-4v-3.44c-.58667 1.200006-1.459994 2.1199968-2.62 2.76s-2.513326.96-4.06.96c-1.786676 0-3.353327-.4266624-4.7-1.28s-2.39333-2.0599922-3.14-3.62-1.12-3.3799896-1.12-5.46.379996-3.919992 1.14-5.52 1.819993-2.8399956 3.18-3.72 2.906658-1.32 4.64-1.32c1.546674 0 2.893328.3266634 4.04.98s2.026664 1.579994 2.64 2.78v-3.28zm-9.72 17.24c1.813342 0 3.219995-.633327 4.22-1.9s1.5-3.0466552 1.5-5.34c0-2.3200116-.499995-4.1066604-1.5-5.36s-2.419991-1.88-4.26-1.88c-1.813342 0-3.233328.6466602-4.26 1.94s-1.54 3.0866552-1.54 5.38c0 2.266678.513328 4.0266604 1.54 5.28s2.46 1.88 4.3 1.88zm48.96 3.28c-2.186678-.8800044-4.093325-2.0933256-5.72-3.64-1.146672 1.1466724-2.446659 2.0266636-3.9 2.64s-3.006658.92-4.66.92c-1.866676 0-3.513326-.3133302-4.94-.94s-2.533329-1.5133276-3.32-2.66-1.18-2.4666592-1.18-3.96c0-1.733342.5-3.2799932 1.5-4.64s2.619989-2.6799936 4.86-3.96c-1.173339-1.3066732-2.006664-2.4466618-2.5-3.42s-.74-1.9799948-.74-3.02c0-1.9200096.679993-3.4733274 2.04-4.66s3.133322-1.78 5.32-1.78c2.053344 0 3.686661.533328 4.9 1.6s1.82 2.5066576 1.82 4.32c0 1.4400072-.426662 2.7199944-1.28 3.84s-2.306656 2.3199936-4.36 3.6l6.24 6.8c1.173339-2.3200116 1.813333-5.079984 1.92-8.28h3.48c-.160001 4.266688-1.173324 7.8933184-3.04 10.88 1.546674 1.5200076 3.439989 2.7199956 5.68 3.6zm-13.2-26.2c-1.066672 0-1.93333.3199968-2.6.96s-1 1.4799948-1 2.52c0 .6933368.179998 1.3666634.54 2.02s1.033328 1.5533276 2.02 2.7c1.626675-.9866716 2.746664-1.846663 3.36-2.58s.92-1.5399956.92-2.42c0-.9600048-.29333-1.7333304-.88-2.32s-1.373328-.88-2.36-.88zm-.96 22.96c2.373345 0 4.439991-.9199908 6.2-2.76l-7.32-7.96c-1.600008 1.0133384-2.746663 1.986662-3.44 2.92s-1.04 1.999994-1.04 3.2c0 1.3866736.506662 2.4999958 1.52 3.34s2.373325 1.26 4.08 1.26zm39 3.2c-2.213344 0-4.233324-.2933304-6.06-.88s-3.40666-1.4666608-4.74-2.64l1.48-3.04c1.386674 1.1200056 2.826659 1.9333308 4.32 2.44s3.173324.76 5.04.76c2.133344 0 3.786661-.399996 4.96-1.2s1.76-1.933326 1.76-3.4c0-1.2266728-.546661-2.1533302-1.64-2.78s-2.826655-1.206664-5.2-1.74c-2.266678-.4800024-4.119993-1.0333302-5.56-1.66s-2.573329-1.4666614-3.4-2.52-1.24-2.4066584-1.24-4.06.439996-3.113327 1.32-4.38 2.126659-2.2533298 3.74-2.96 3.473323-1.06 5.58-1.06c2.00001 0 3.873325.3066636 5.62.92s3.206661 1.4799944 4.38 2.6l-1.48 3.04c-1.306673-1.0933388-2.653326-1.8999974-4.04-2.42s-2.866659-.78-4.44-.78c-2.053344 0-3.666661.433329-4.84 1.3s-1.76 2.0466592-1.76 3.54c0 1.2800064.513328 2.25333 1.54 2.92s2.673322 1.266664 4.94 1.8c2.373345.533336 4.293326 1.0933304 5.76 1.68s2.639996 1.3866616 3.52 2.4 1.32 2.319992 1.32 3.92c0 1.6533416-.439996 3.0933272-1.32 4.32s-2.139992 2.1799966-3.78 2.86-3.566656 1.02-5.78 1.02zm34.08-20.48v20.16h-4v-3.44c-.58667 1.200006-1.459994 2.1199968-2.62 2.76s-2.513326.96-4.06.96c-1.786676 0-3.353327-.4266624-4.7-1.28s-2.39333-2.0599922-3.14-3.62-1.12-3.3799896-1.12-5.46.379996-3.919992 1.14-5.52 1.819993-2.8399956 3.18-3.72 2.906658-1.32 4.64-1.32c1.546674 0 2.893328.3266634 4.04.98s2.026664 1.579994 2.64 2.78v-3.28zm-9.72 17.24c1.813342 0 3.219995-.633327 4.22-1.9s1.5-3.0466552 1.5-5.34c0-2.3200116-.499995-4.1066604-1.5-5.36s-2.419991-1.88-4.26-1.88c-1.813342 0-3.233328.6466602-4.26 1.94s-1.54 3.0866552-1.54 5.38c0 2.266678.513328 4.0266604 1.54 5.28s2.46 1.88 4.3 1.88zm38.64-17.72c4.480022 0 6.72 2.6933064 6.72 8.08v12.56h-4.04v-12.36c0-1.733342-.299997-2.999996-.9-3.8-.6-.800004-1.56666-1.2-2.9-1.2-1.546674 0-2.766662.533328-3.66 1.6s-1.34 2.5199908-1.34 4.36v11.4h-4.04v-12.36c0-1.733342-.299997-2.999996-.9-3.8s-1.56666-1.2-2.9-1.2c-1.546674 0-2.773329.533328-3.68 1.6s-1.36 2.5199908-1.36 4.36v11.4h-4v-14.48c0-2.1066772-.106666-3.9999916-.32-5.68h3.76l.36 3.36c.58667-1.2266728 1.426661-2.17333 2.52-2.84s2.373326-1 3.84-1c3.120016 0 5.159995 1.2933204 6.12 3.88.613336-1.200006 1.513327-2.1466632 2.7-2.84s2.526659-1.04 4.02-1.04z" fill="#ee2a7b"/></svg>