<svg height="51" viewBox="0 0 213 51" width="213" xmlns="http://www.w3.org/2000/svg"><path d="m174.82 31.86v-10.38h7.14v10.38h8.16v-15.18h7.14v15.18h7.98v-20.04h7.14v27.18h-56.82v-7.14zm-42.96 0h25.26v7.14h-25.26zm-15.36 0h8.82v-31.62h7.14v31.62h.36v7.14h-16.32zm-24.3 0h25.26v7.14h-25.26zm-23.7 0h25.26v7.14h-25.26zm-19.5 18.9v-7.26h9.84c1.29375 0 2.165625-.2636719 2.5661865-.8404541l.0738135-.1195459c.24-.36.42-.9.42-1.5v-2.04h-1.62c-6.66 0-11.28-4.38-11.28-10.92v-5.4c0-6.42 4.62-10.86 11.28-10.86h8.82v20.04h.36v7.14h-.36v1.14c0 6.84-3.9 10.62-10.92 10.62zm12.9-31.8h-1.86c-2.58 0-3.9 1.44-3.9 4.38v4.08c0 2.94 1.32 4.44 3.9 4.44h1.86zm-31.62 24.78h.9c3.54 0 5.28-1.68 5.28-4.92v-27h7.14l-.0009375 26.3165625c-.0028125.6721875-.0140625 1.2684375-.0590625 1.7634375-.24 2.7-.9 4.92-2.1 6.6-1.74 2.34-4.02 3.72-6.84 4.08l-1.14816.08928c-.64224.04752-1.38384.09072-2.21184.09072h-.96zm-21.54-43.5h7.26v7.14h-7.26zm10.2 0h7.14v7.14h-7.14zm7.14 11.58v27.18h-25.38c1.5-16.68 11.34-26.28 25.38-27.18zm-7.14 8.76c-4.68 1.92-7.62 6.54-9.06 11.28h9.06z" fill="#ee2a7b"/></svg>